<svg width="24" height="25" viewBox="0 0 24 25" fill="none" xmlns="http://www.w3.org/2000/svg">
<g clip-path="url(#clip0_1_1508)">
<path d="M5.48088 2.15602C5.39233 2.04211 5.28056 1.94834 5.15299 1.88095C5.02541 1.81356 4.88496 1.77409 4.74096 1.76515C4.59696 1.75621 4.4527 1.77802 4.31778 1.82911C4.18285 1.88021 4.06034 1.95943 3.95838 2.06152L2.40738 3.61402C1.68288 4.34002 1.41588 5.36752 1.73238 6.26902C3.04748 9.99968 5.18411 13.3871 7.98438 16.181C10.7783 18.9813 14.1657 21.1179 17.8964 22.433C18.7979 22.7495 19.8254 22.4825 20.5514 21.758L22.1024 20.207C22.2045 20.1051 22.2837 19.9826 22.3348 19.8476C22.3859 19.7127 22.4077 19.5684 22.3987 19.4244C22.3898 19.2804 22.3503 19.14 22.2829 19.0124C22.2156 18.8848 22.1218 18.7731 22.0079 18.6845L18.5474 15.9935C18.4256 15.8993 18.284 15.8339 18.1334 15.8022C17.9827 15.7706 17.8268 15.7734 17.6774 15.8105L14.3924 16.631C13.9539 16.7399 13.4947 16.7337 13.0592 16.6131C12.6238 16.4924 12.2269 16.2615 11.9069 15.9425L8.22288 12.257C7.90365 11.9372 7.67241 11.5403 7.55153 11.1049C7.43064 10.6694 7.42422 10.2102 7.53288 9.77152L8.35488 6.48652C8.39202 6.3371 8.39485 6.1812 8.36316 6.03053C8.33146 5.87986 8.26607 5.73832 8.17188 5.61652L5.48088 2.15602ZM2.82588 0.930517C3.08837 0.667941 3.40372 0.464212 3.75099 0.332859C4.09826 0.201505 4.4695 0.145532 4.84005 0.168656C5.21061 0.191781 5.57201 0.293473 5.90025 0.466982C6.2285 0.64049 6.51607 0.881844 6.74388 1.17502L9.43488 4.63402C9.92838 5.26852 10.1024 6.09502 9.90738 6.87502L9.08688 10.16C9.04476 10.3302 9.0472 10.5083 9.09396 10.6773C9.14073 10.8462 9.23025 11.0002 9.35388 11.1245L13.0394 14.81C13.1638 14.9339 13.3181 15.0236 13.4873 15.0703C13.6566 15.1171 13.835 15.1194 14.0054 15.077L17.2889 14.2565C17.6738 14.1608 18.0755 14.1536 18.4636 14.2355C18.8518 14.3173 19.2163 14.4861 19.5299 14.729L22.9889 17.42C24.2324 18.3875 24.3464 20.225 23.2334 21.3365L21.6824 22.8875C20.5724 23.9975 18.9134 24.485 17.3669 23.9405C13.4079 22.5494 9.81369 20.2831 6.85188 17.3105C3.87944 14.3491 1.61321 10.7555 0.221882 6.79702C-0.321118 5.25202 0.166382 3.59152 1.27638 2.48152L2.82588 0.930517Z" fill="#EEEEEE"/>
</g>
<defs>
<clipPath id="clip0_1_1508">
<rect width="24" height="24" fill="white" transform="translate(0 0.164062)"/>
</clipPath>
</defs>
</svg>
