<svg width="40" height="28" viewBox="0 0 40 28" fill="none" xmlns="http://www.w3.org/2000/svg">
<rect y="0.449219" width="40" height="27.4286" rx="2" fill="white"/>
<path d="M25.7172 10.6665C27.1338 10.6665 28.4698 11.9428 28.4779 14.2847C28.4778 16.8444 27.1583 18.0073 25.7094 18.0073C24.9971 18.0073 24.5682 17.7085 24.2767 17.4985L24.2679 19.7837L22.2445 20.2114V10.7954H24.0258L24.1312 11.2964C24.4146 11.038 24.9243 10.6666 25.7172 10.6665ZM8.45056 10.6665C9.12241 10.6665 9.78652 10.7711 10.4584 11.0376V12.936C9.84319 12.605 9.06578 12.4195 8.45056 12.4194C8.02155 12.4194 7.76213 12.5401 7.76208 12.855C7.76208 13.7594 10.8466 13.3315 10.8549 15.7378C10.8549 17.1833 9.69688 18.0151 8.01306 18.0151C7.31692 18.0151 6.55589 17.8782 5.8031 17.5552V15.6333C6.48304 16.0047 7.34118 16.2788 8.01306 16.2788C8.46633 16.2788 8.79031 16.158 8.79041 15.7866C8.79041 14.8256 5.71423 15.1805 5.71423 12.9517C5.71439 11.5225 6.80734 10.6665 8.45056 10.6665ZM13.2269 10.8042H14.765V12.5239H13.2269V15.3911C13.2272 16.5858 14.506 16.2148 14.765 16.1099V17.7485C14.4979 17.8939 14.0118 18.0151 13.348 18.0151C12.1499 18.0151 11.2514 17.1351 11.2513 15.9399L11.2592 9.47119L13.2347 9.05127L13.2269 10.8042ZM31.9349 10.6665C33.8532 10.6667 34.8567 12.2977 34.8568 14.3647C34.8568 14.5583 34.8412 14.9779 34.8412 15.0835H30.8822C30.9712 16.0363 31.6674 16.311 32.4525 16.311C33.2538 16.311 33.8855 16.1421 34.4359 15.8677V17.4819C33.8854 17.7888 33.1571 18.0073 32.1937 18.0073C30.2185 18.0073 28.8422 16.7798 28.8422 14.3491C28.8422 12.298 30.0083 10.6665 31.9349 10.6665ZM17.2826 11.4019C17.7602 10.5297 18.7071 10.7073 18.9662 10.8042V12.6616C18.7152 12.5728 17.9057 12.4597 17.4281 13.0815V17.8696H15.4047V10.8042H17.1527L17.2826 11.4019ZM21.4916 17.8696H19.4594V10.8042H21.4916V17.8696ZM25.2318 12.4595C24.7704 12.4595 24.4784 12.6208 24.2679 12.855L24.2767 15.8511C24.471 16.061 24.7543 16.231 25.2318 16.231C25.9764 16.2309 26.4778 15.4232 26.4779 14.3413C26.4779 13.2835 25.9684 12.4596 25.2318 12.4595ZM31.9261 12.3062C31.4163 12.3063 30.8578 12.6858 30.8578 13.5981H32.9467C32.9467 12.6856 32.42 12.3062 31.9261 12.3062ZM21.4916 9.75439L19.4603 10.1899V8.54248L21.4916 8.11475V9.75439Z" fill="#6461FC"/>
</svg>
