<svg width="40" height="28" viewBox="0 0 40 28" fill="none" xmlns="http://www.w3.org/2000/svg">
<rect y="0.449219" width="40" height="27.4286" rx="2" fill="white"/>
<path d="M17.1133 18.8295H14.8516L16.2662 10.0825H18.5278L17.1133 18.8295Z" fill="#00579F"/>
<path d="M25.3113 10.2967C24.8651 10.1197 24.1576 9.92432 23.2827 9.92432C21.0492 9.92432 19.4764 11.1153 19.4667 12.8181C19.4482 14.0744 20.5928 14.7722 21.4489 15.1911C22.3239 15.6192 22.6214 15.8986 22.6214 16.2801C22.6125 16.8661 21.9143 17.1362 21.2632 17.1362C20.3602 17.1362 19.8764 16.9969 19.1411 16.6709L18.8433 16.5312L18.5268 18.4947C19.0572 18.7363 20.0345 18.9508 21.0492 18.9602C23.4223 18.9602 24.9673 17.7876 24.9856 15.973C24.9946 14.9773 24.3902 14.2143 23.0872 13.5909C22.2961 13.1906 21.8117 12.9208 21.8117 12.5113C21.8209 12.139 22.2214 11.7577 23.1144 11.7577C23.8496 11.739 24.3899 11.9158 24.7991 12.0926L25.0037 12.1855L25.3113 10.2967Z" fill="#00579F"/>
<path d="M28.3184 15.7307C28.5047 15.2282 29.2214 13.2834 29.2214 13.2834C29.212 13.3021 29.4073 12.7716 29.519 12.446L29.677 13.1997C29.677 13.1997 30.1053 15.2934 30.1983 15.7307C29.8449 15.7307 28.7651 15.7307 28.3184 15.7307ZM31.1102 10.0825H29.3608C28.8213 10.0825 28.4114 10.2406 28.1787 10.8083L24.8192 18.8294H27.1923C27.1923 18.8294 27.583 17.7498 27.667 17.5173C27.9274 17.5173 30.2359 17.5173 30.5708 17.5173C30.6358 17.8244 30.8407 18.8294 30.8407 18.8294H32.9348L31.1102 10.0825Z" fill="#00579F"/>
<path d="M12.9623 10.0825L10.7473 16.0471L10.5053 14.8374C10.0958 13.4416 8.81153 11.9251 7.37836 11.171L9.40716 18.8202H11.7988L15.3538 10.0825H12.9623Z" fill="#00579F"/>
<path d="M8.69059 10.0825H5.05175L5.01453 10.2593C7.85305 10.9851 9.73295 12.7348 10.5053 14.8378L9.71427 10.8178C9.58404 10.2591 9.18382 10.1009 8.69059 10.0825Z" fill="#FAA61A"/>
</svg>
