<svg width="40" height="28" viewBox="0 0 40 28" fill="none" xmlns="http://www.w3.org/2000/svg">
<g clip-path="url(#clip0_1_1564)">
<mask id="mask0_1_1564" style="mask-type:luminance" maskUnits="userSpaceOnUse" x="0" y="0" width="40" height="28">
<path d="M40 0.449219H0V27.8792H40V0.449219Z" fill="white"/>
</mask>
<g mask="url(#mask0_1_1564)">
<path d="M35.3719 1.2251H4.62803C2.74143 1.2251 1.21204 2.62065 1.21204 4.34214V23.0444C1.21204 24.7659 2.74143 26.1615 4.62803 26.1615H35.3719C37.2585 26.1615 38.7878 24.7659 38.7878 23.0444V4.34214C38.7878 2.62065 37.2585 1.2251 35.3719 1.2251Z" fill="white"/>
<path fill-rule="evenodd" clip-rule="evenodd" d="M4.62812 2.47166C3.27037 2.47166 2.42425 3.4452 2.42425 4.34189V23.0442C2.42425 23.9409 3.27037 24.9144 4.62812 24.9144H35.372C36.7297 24.9144 37.5758 23.9409 37.5758 23.0442V4.34189C37.5758 3.4452 36.7297 2.47166 35.372 2.47166H4.62812ZM0 4.34189C0 1.79559 2.21266 -0.0219727 4.62812 -0.0219727H35.372C37.7874 -0.0219727 40 1.79559 40 4.34189V23.0442C40 25.5904 37.7874 27.408 35.372 27.408H4.62812C2.21266 27.408 0 25.5904 0 23.0442V4.34189Z" fill="#6FA059"/>
<path d="M7.54168 15.2168C7.3624 14.7477 7.27271 14.2398 7.27271 13.6931C7.27271 13.1464 7.3624 12.6403 7.54168 12.1747C7.72107 11.7055 7.96592 11.3105 8.27658 10.9896C8.59028 10.6651 8.96168 10.4112 9.39077 10.2278C9.81986 10.0444 10.2777 9.95264 10.7643 9.95264C11.1102 9.95264 11.432 10.002 11.7297 10.1008C12.0307 10.196 12.29 10.33 12.5077 10.5029C12.7287 10.6757 12.9191 10.8626 13.0793 11.0637C13.2394 11.2612 13.3818 11.4799 13.5068 11.7198L12.306 12.3705C12.1652 12.0671 11.9555 11.8166 11.6768 11.6191C11.3983 11.4216 11.0942 11.3229 10.7643 11.3229C10.1688 11.3229 9.67731 11.5468 9.28992 11.9948C8.90253 12.4428 8.70883 13.0088 8.70883 13.6931C8.70883 14.3773 8.90253 14.9451 9.28992 15.3966C9.67731 15.8446 10.1688 16.0685 10.7643 16.0685C11.0942 16.0685 11.3983 15.9698 11.6768 15.7723C11.9555 15.5748 12.1652 15.3226 12.306 15.0157L13.5068 15.656C12.8856 16.8411 11.9715 17.4335 10.7643 17.4335C10.2777 17.4335 9.81986 17.3418 9.39077 17.1584C8.96168 16.975 8.59028 16.7229 8.27658 16.4019C7.96592 16.0774 7.72107 15.6824 7.54168 15.2168Z" fill="#6FA059"/>
<path d="M13.5739 17.3012L16.1097 10.0742H17.8627L20.389 17.3012H18.7945L18.3911 16.079H15.5815L15.1684 17.3012H13.5739ZM15.9609 14.7246H18.0068L16.9838 11.6138L15.9609 14.7246Z" fill="#6FA059"/>
<path d="M20.485 16.2805L21.2439 15.1113C21.4969 15.4005 21.801 15.6368 22.1564 15.8202C22.5118 16.0001 22.9024 16.09 23.3283 16.09C23.6932 16.09 23.9735 16.0125 24.1687 15.8572C24.3673 15.6985 24.4666 15.508 24.4666 15.2858C24.4666 15.1518 24.4233 15.0354 24.3369 14.9367C24.2503 14.8343 24.1335 14.7515 23.9862 14.688C23.8422 14.6245 23.6757 14.5663 23.4867 14.5134C23.2978 14.4605 23.0993 14.4075 22.8912 14.3547C22.683 14.2982 22.4749 14.2365 22.2668 14.1695C22.0587 14.099 21.8603 14.0091 21.6713 13.8997C21.4824 13.7869 21.3143 13.6563 21.167 13.5082C21.0229 13.3601 20.9077 13.1713 20.8212 12.9422C20.7348 12.7129 20.6915 12.4537 20.6915 12.1644C20.6915 11.5436 20.9172 11.0234 21.3687 10.6036C21.8234 10.1805 22.4269 9.96875 23.1794 9.96875C24.2296 9.96875 25.0828 10.3039 25.7393 10.9741L24.9612 12.1009C24.7018 11.8399 24.4057 11.6424 24.0726 11.5083C23.7397 11.3743 23.4003 11.3073 23.0544 11.3073C22.7599 11.3073 22.5294 11.3743 22.3629 11.5083C22.1997 11.6389 22.118 11.8152 22.118 12.0375C22.118 12.1714 22.1708 12.2896 22.2765 12.3919C22.3854 12.4907 22.5278 12.5682 22.7039 12.6247C22.8832 12.6776 23.0849 12.7376 23.309 12.8045C23.5364 12.868 23.7669 12.9316 24.0006 12.995C24.2343 13.055 24.4633 13.1431 24.6874 13.2596C24.9148 13.3724 25.1165 13.5047 25.2926 13.6563C25.4719 13.8045 25.6143 14.0037 25.72 14.2542C25.8289 14.5045 25.8833 14.7903 25.8833 15.1113C25.8833 15.8026 25.6592 16.3633 25.2109 16.7937C24.7658 17.2205 24.1159 17.4338 23.261 17.4338C22.0988 17.4338 21.1735 17.0494 20.485 16.2805Z" fill="#6FA059"/>
<path d="M26.8247 17.3012V10.0742H28.2223V12.9152H31.3201V10.0742H32.7273V17.3012H31.3201V14.2696H28.2223V17.3012H26.8247Z" fill="#6FA059"/>
</g>
</g>
<defs>
<clipPath id="clip0_1_1564">
<rect width="40" height="27.43" fill="white" transform="translate(0 0.449219)"/>
</clipPath>
</defs>
</svg>
