<svg width="24" height="25" viewBox="0 0 24 25" fill="none" xmlns="http://www.w3.org/2000/svg">
<path d="M18.75 9.91406C18.75 8.12385 18.0388 6.40696 16.773 5.14109C15.5071 3.87522 13.7902 3.16406 12 3.16406C10.2098 3.16406 8.4929 3.87522 7.22703 5.14109C5.96116 6.40696 5.25 8.12385 5.25 9.91406C5.25 12.6831 7.4655 16.2921 12 20.6151C16.5345 16.2921 18.75 12.6831 18.75 9.91406ZM12 22.6641C6.4995 17.6646 3.75 13.4136 3.75 9.91406C3.75 7.72603 4.61919 5.62761 6.16637 4.08043C7.71354 2.53326 9.81196 1.66406 12 1.66406C14.188 1.66406 16.2865 2.53326 17.8336 4.08043C19.3808 5.62761 20.25 7.72603 20.25 9.91406C20.25 13.4136 17.5005 17.6646 12 22.6641Z" fill="#EEEEEE"/>
<path d="M12 12.1641C12.5967 12.1641 13.169 11.927 13.591 11.5051C14.0129 11.0831 14.25 10.5108 14.25 9.91406C14.25 9.31733 14.0129 8.74503 13.591 8.32307C13.169 7.90112 12.5967 7.66406 12 7.66406C11.4033 7.66406 10.831 7.90112 10.409 8.32307C9.98705 8.74503 9.75 9.31733 9.75 9.91406C9.75 10.5108 9.98705 11.0831 10.409 11.5051C10.831 11.927 11.4033 12.1641 12 12.1641ZM12 13.6641C11.0054 13.6641 10.0516 13.269 9.34835 12.5657C8.64509 11.8625 8.25 10.9086 8.25 9.91406C8.25 8.9195 8.64509 7.96567 9.34835 7.26241C10.0516 6.55915 11.0054 6.16406 12 6.16406C12.9946 6.16406 13.9484 6.55915 14.6517 7.26241C15.3549 7.96567 15.75 8.9195 15.75 9.91406C15.75 10.9086 15.3549 11.8625 14.6517 12.5657C13.9484 13.269 12.9946 13.6641 12 13.6641Z" fill="#EEEEEE"/>
</svg>
