<svg width="25" height="24" viewBox="0 0 25 24" fill="none" xmlns="http://www.w3.org/2000/svg">
<path d="M3.95983 17H15.9598C16.2147 17.0003 16.4599 17.0979 16.6452 17.2728C16.8305 17.4478 16.9421 17.687 16.957 17.9414C16.9719 18.1958 16.8892 18.4464 16.7256 18.6418C16.562 18.8373 16.3299 18.9629 16.0768 18.993L15.9598 19H3.95983C3.70495 18.9997 3.4598 18.9021 3.27446 18.7272C3.08913 18.5522 2.97759 18.313 2.96266 18.0586C2.94772 17.8042 3.0305 17.5536 3.19409 17.3582C3.35768 17.1627 3.58973 17.0371 3.84283 17.007L3.95983 17ZM3.95983 11H21.9598C22.2147 11.0003 22.4599 11.0979 22.6452 11.2728C22.8305 11.4478 22.9421 11.687 22.957 11.9414C22.9719 12.1958 22.8892 12.4464 22.7256 12.6418C22.562 12.8373 22.3299 12.9629 22.0768 12.993L21.9598 13H3.95983C3.70495 12.9997 3.4598 12.9021 3.27446 12.7272C3.08913 12.5522 2.97759 12.313 2.96266 12.0586C2.94772 11.8042 3.0305 11.5536 3.19409 11.3582C3.35768 11.1627 3.58973 11.0371 3.84283 11.007L3.95983 11ZM3.95983 5H18.9598C19.2147 5.00028 19.4599 5.09788 19.6452 5.27285C19.8305 5.44782 19.9421 5.68695 19.957 5.94139C19.9719 6.19584 19.8892 6.44638 19.7256 6.64183C19.562 6.83729 19.3299 6.9629 19.0768 6.993L18.9598 7H3.95983C3.70495 6.99972 3.4598 6.90212 3.27446 6.72715C3.08913 6.55218 2.97759 6.31305 2.96266 6.05861C2.94772 5.80416 3.0305 5.55362 3.19409 5.35817C3.35768 5.16271 3.58973 5.0371 3.84283 5.007L3.95983 5Z" fill="#0E0E0E"/>
</svg>
