<svg width="40" height="28" viewBox="0 0 40 28" fill="none" xmlns="http://www.w3.org/2000/svg">
<rect y="0.449219" width="40" height="27.4286" rx="2" fill="white"/>
<path d="M31.4253 16.8135H31.4458L33.1138 12.627H34.2856L30.6821 21.0205H29.5698L30.9097 18.084L28.5444 12.627H29.7173L31.4253 16.8135ZM25.7847 12.4365C26.5818 12.4365 27.2121 12.6539 27.6743 13.082C28.1364 13.5102 28.3638 14.109 28.3638 14.8633V18.458H27.3325V17.6494H27.2856C26.8368 18.3154 26.247 18.6484 25.5034 18.6484C24.8737 18.6484 24.3376 18.4577 23.9155 18.0771C23.5004 17.7238 23.2664 17.2007 23.2798 16.6504C23.2798 16.0457 23.507 15.5701 23.9556 15.21C24.4044 14.8498 25.008 14.6729 25.7583 14.6729C26.4012 14.6729 26.9241 14.7953 27.3394 15.0264V14.7744C27.3393 14.4007 27.1782 14.0474 26.897 13.8027C26.609 13.5446 26.2406 13.4015 25.8589 13.4014C25.256 13.4014 24.7795 13.6602 24.4312 14.1768L23.48 13.5713C23.9891 12.817 24.7598 12.4365 25.7847 12.4365ZM20.6733 9.93555C21.3633 9.92195 22.033 10.1874 22.522 10.6768C23.5 11.6011 23.5608 13.1572 22.6431 14.1562L22.522 14.2783C22.0196 14.7608 21.4035 15.0059 20.6733 15.0059H18.8911V18.458H17.813V9.93555H20.6733ZM25.9263 15.5557C25.4908 15.5557 25.1215 15.6653 24.8267 15.876C24.5388 16.0866 24.3911 16.3516 24.3911 16.6709C24.3912 16.9563 24.5255 17.2217 24.7466 17.3848C24.9877 17.575 25.2831 17.6767 25.5845 17.6699C26.0398 17.6698 26.4749 17.4861 26.7964 17.1602C27.1515 16.8203 27.3325 16.4192 27.3325 15.957C26.9976 15.6854 26.5289 15.5489 25.9263 15.5557ZM18.8921 13.959H20.7007C21.1026 13.9726 21.4914 13.8097 21.7661 13.5176C22.3289 12.9263 22.3157 11.9742 21.7329 11.4033C21.4582 11.1315 21.0893 10.9824 20.7007 10.9824H18.8921V13.959Z" fill="black"/>
<path d="M15.168 14.2584C15.168 13.9254 15.1412 13.5923 15.0876 13.2661H10.5391V15.1487H13.1449C13.0378 15.7536 12.6894 16.2973 12.1803 16.6371V17.8604H13.7344C14.6455 17.0109 15.168 15.7536 15.168 14.2584Z" fill="#4285F4"/>
<path d="M10.5393 19.0428C11.8389 19.0428 12.9376 18.6079 13.7347 17.8603L12.1806 16.637C11.7451 16.936 11.1891 17.1059 10.5393 17.1059C9.27994 17.1059 8.21482 16.2428 7.83298 15.0874H6.23193V16.3515C7.0492 18.003 8.71723 19.0428 10.5393 19.0428Z" fill="#1FAF38"/>
<path d="M7.83311 15.0872C7.63211 14.4823 7.63211 13.8231 7.83311 13.2114V11.9541H6.23181C5.54171 13.3338 5.54171 14.9649 6.23181 16.3445L7.83311 15.0872Z" fill="#FBBC04"/>
<path d="M10.5393 11.1931C11.2293 11.1795 11.8925 11.4446 12.3882 11.9271L13.7682 10.5271C12.8907 9.69791 11.7384 9.24256 10.5393 9.25616C8.71723 9.25616 7.0492 10.3028 6.23193 11.9543L7.83298 13.2184C8.21482 12.0562 9.27994 11.1931 10.5393 11.1931Z" fill="#EA4335"/>
</svg>
