<svg width="24" height="25" viewBox="0 0 24 25" fill="none" xmlns="http://www.w3.org/2000/svg">
<path fill-rule="evenodd" clip-rule="evenodd" d="M12.5102 8.96006V10.6571C12.8656 10.1157 13.3554 9.67596 13.9318 9.38077C14.5081 9.08558 15.1513 8.94509 15.7982 8.97306C19.2532 8.97306 20.0002 11.1331 20.0002 13.9431V19.6641H16.8002V14.5921C16.8002 13.3821 16.5562 11.8261 14.6722 11.8261C12.8452 11.8261 12.5332 13.1431 12.5332 14.5021V19.6641H9.34321V8.96006H12.5102ZM7.20021 6.27006C7.19981 6.58707 7.10585 6.8969 6.93009 7.16072C6.75433 7.42453 6.5046 7.63059 6.21221 7.75306C5.91993 7.87454 5.59813 7.90632 5.28774 7.84435C4.97735 7.78238 4.69242 7.62946 4.46921 7.40506C4.24557 7.18052 4.09332 6.89487 4.0316 6.58403C3.96988 6.27319 4.00144 5.95104 4.12232 5.65809C4.24319 5.36514 4.44799 5.11447 4.71095 4.9376C4.97391 4.76073 5.2833 4.66556 5.60021 4.66406C5.81083 4.66406 6.01938 4.70564 6.21389 4.78643C6.4084 4.86721 6.58505 4.9856 6.7337 5.13481C6.88236 5.28402 7.00009 5.46111 7.08014 5.65593C7.16019 5.85074 7.201 6.05944 7.20021 6.27006Z" fill="white"/>
<path d="M7.2 8.97314H4V19.6641H7.2V8.97314Z" fill="white"/>
</svg>
