<svg width="24" height="25" viewBox="0 0 24 25" fill="none" xmlns="http://www.w3.org/2000/svg">
<path d="M16.6 5.98406C15.9166 5.20359 15.5399 4.20146 15.54 3.16406H12.45V15.5641C12.4267 16.2353 12.1435 16.8711 11.6603 17.3376C11.1771 17.804 10.5316 18.0645 9.86 18.0641C8.44 18.0641 7.26 16.9041 7.26 15.4641C7.26 13.7441 8.92 12.4541 10.63 12.9841V9.82406C7.18 9.36406 4.16 12.0441 4.16 15.4641C4.16 18.7941 6.92 21.1641 9.85 21.1641C12.99 21.1641 15.54 18.6141 15.54 15.4641V9.17406C16.793 10.0739 18.2974 10.5567 19.84 10.5541V7.46406C19.84 7.46406 17.96 7.55406 16.6 5.98406Z" fill="white"/>
</svg>
