<svg width="14" height="14" viewBox="0 0 14 14" fill="none" xmlns="http://www.w3.org/2000/svg">
<path d="M12.8334 5.1695C12.8354 6.0671 12.4896 6.93058 11.8686 7.57867C10.4446 9.05508 9.06331 10.5945 7.58689 12.0167C7.24797 12.3375 6.71072 12.3258 6.38697 11.9904L2.13156 7.57925C0.845308 6.24575 0.845308 4.09325 2.13156 2.76033C2.43556 2.44125 2.80119 2.18722 3.20628 2.01365C3.61138 1.84008 4.04751 1.75058 4.48822 1.75058C4.92894 1.75058 5.36507 1.84008 5.77016 2.01365C6.17526 2.18722 6.54089 2.44125 6.84489 2.76033L7.00006 2.92017L7.15464 2.76033C7.45901 2.44168 7.8247 2.18791 8.2297 2.01428C8.63471 1.84064 9.07065 1.75075 9.51131 1.75C10.398 1.75 11.2456 2.114 11.868 2.76033C12.4892 3.40833 12.8352 4.27182 12.8334 5.1695Z" stroke="white" stroke-width="1.5" stroke-linejoin="round"/>
</svg>
