<svg width="24" height="25" viewBox="0 0 24 25" fill="none" xmlns="http://www.w3.org/2000/svg">
<path d="M19.05 5.07412C18.1331 4.14822 17.041 3.41408 15.8375 2.91448C14.634 2.41487 13.3431 2.1598 12.04 2.16412C6.57999 2.16412 2.12999 6.61412 2.12999 12.0741C2.12999 13.8241 2.58999 15.5241 3.44999 17.0241L2.04999 22.1641L7.29999 20.7841C8.74999 21.5741 10.38 21.9941 12.04 21.9941C17.5 21.9941 21.95 17.5441 21.95 12.0841C21.95 9.43412 20.92 6.94412 19.05 5.07412ZM12.04 20.3141C10.56 20.3141 9.10999 19.9141 7.83999 19.1641L7.53999 18.9841L4.41999 19.8041L5.24999 16.7641L5.04999 16.4541C4.22754 15.1412 3.79091 13.6234 3.78999 12.0741C3.78999 7.53412 7.48999 3.83412 12.03 3.83412C14.23 3.83412 16.3 4.69412 17.85 6.25412C18.6176 7.01798 19.2259 7.92666 19.6396 8.92744C20.0533 9.92823 20.2642 11.0012 20.26 12.0841C20.28 16.6241 16.58 20.3141 12.04 20.3141ZM16.56 14.1541C16.31 14.0341 15.09 13.4341 14.87 13.3441C14.64 13.2641 14.48 13.2241 14.31 13.4641C14.14 13.7141 13.67 14.2741 13.53 14.4341C13.39 14.6041 13.24 14.6241 12.99 14.4941C12.74 14.3741 11.94 14.1041 11 13.2641C10.26 12.6041 9.76999 11.7941 9.61999 11.5441C9.47999 11.2941 9.59999 11.1641 9.72999 11.0341C9.83999 10.9241 9.97999 10.7441 10.1 10.6041C10.22 10.4641 10.27 10.3541 10.35 10.1941C10.43 10.0241 10.39 9.88412 10.33 9.76412C10.27 9.64412 9.76999 8.42412 9.56999 7.92412C9.36999 7.44412 9.15999 7.50412 9.00999 7.49412H8.52999C8.35999 7.49412 8.09999 7.55412 7.86999 7.80412C7.64999 8.05412 7.00999 8.65412 7.00999 9.87412C7.00999 11.0941 7.89999 12.2741 8.01999 12.4341C8.13999 12.6041 9.76999 15.1041 12.25 16.1741C12.84 16.4341 13.3 16.5841 13.66 16.6941C14.25 16.8841 14.79 16.8541 15.22 16.7941C15.7 16.7241 16.69 16.1941 16.89 15.6141C17.1 15.0341 17.1 14.5441 17.03 14.4341C16.96 14.3241 16.81 14.2741 16.56 14.1541Z" fill="white"/>
</svg>
