<svg width="24" height="25" viewBox="0 0 24 25" fill="none" xmlns="http://www.w3.org/2000/svg">
<path d="M7.8 2.16406H16.2C19.4 2.16406 22 4.76406 22 7.96406V16.3641C22 17.9023 21.3889 19.3776 20.3012 20.4653C19.2135 21.553 17.7383 22.1641 16.2 22.1641H7.8C4.6 22.1641 2 19.5641 2 16.3641V7.96406C2 6.42581 2.61107 4.95055 3.69878 3.86284C4.78649 2.77513 6.26174 2.16406 7.8 2.16406ZM7.6 4.16406C6.64522 4.16406 5.72955 4.54335 5.05442 5.21848C4.37928 5.89361 4 6.80928 4 7.76406V16.5641C4 18.5541 5.61 20.1641 7.6 20.1641H16.4C17.3548 20.1641 18.2705 19.7848 18.9456 19.1096C19.6207 18.4345 20 17.5188 20 16.5641V7.76406C20 5.77406 18.39 4.16406 16.4 4.16406H7.6ZM17.25 5.66406C17.5815 5.66406 17.8995 5.79576 18.1339 6.03018C18.3683 6.2646 18.5 6.58254 18.5 6.91406C18.5 7.24558 18.3683 7.56353 18.1339 7.79795C17.8995 8.03237 17.5815 8.16406 17.25 8.16406C16.9185 8.16406 16.6005 8.03237 16.3661 7.79795C16.1317 7.56353 16 7.24558 16 6.91406C16 6.58254 16.1317 6.2646 16.3661 6.03018C16.6005 5.79576 16.9185 5.66406 17.25 5.66406ZM12 7.16406C13.3261 7.16406 14.5979 7.69085 15.5355 8.62853C16.4732 9.56621 17 10.838 17 12.1641C17 13.4901 16.4732 14.7619 15.5355 15.6996C14.5979 16.6373 13.3261 17.1641 12 17.1641C10.6739 17.1641 9.40215 16.6373 8.46447 15.6996C7.52678 14.7619 7 13.4901 7 12.1641C7 10.838 7.52678 9.56621 8.46447 8.62853C9.40215 7.69085 10.6739 7.16406 12 7.16406ZM12 9.16406C11.2044 9.16406 10.4413 9.48013 9.87868 10.0427C9.31607 10.6054 9 11.3684 9 12.1641C9 12.9597 9.31607 13.7228 9.87868 14.2854C10.4413 14.848 11.2044 15.1641 12 15.1641C12.7956 15.1641 13.5587 14.848 14.1213 14.2854C14.6839 13.7228 15 12.9597 15 12.1641C15 11.3684 14.6839 10.6054 14.1213 10.0427C13.5587 9.48013 12.7956 9.16406 12 9.16406Z" fill="white"/>
</svg>
