<svg width="14" height="14" viewBox="0 0 14 14" fill="none" xmlns="http://www.w3.org/2000/svg">
<path d="M8.3125 9.625L6.5625 11.375L8.3125 13.125M5.66016 4.375L7.41016 2.625L5.66016 0.875" stroke="white" stroke-width="1.5" stroke-linecap="round" stroke-linejoin="round"/>
<path d="M3.0625 10.0625C3.78737 10.0625 4.375 10.6501 4.375 11.375C4.375 12.0999 3.78737 12.6875 3.0625 12.6875C2.33763 12.6875 1.75 12.0999 1.75 11.375C1.75 10.6501 2.33763 10.0625 3.0625 10.0625Z" stroke="white" stroke-width="1.5" stroke-linecap="round" stroke-linejoin="round"/>
<path d="M10.9375 1.3125C11.6624 1.3125 12.25 1.90013 12.25 2.625C12.25 3.34987 11.6624 3.9375 10.9375 3.9375C10.2126 3.9375 9.625 3.34987 9.625 2.625C9.625 1.90013 10.2126 1.3125 10.9375 1.3125Z" stroke="white" stroke-width="1.5" stroke-linecap="round" stroke-linejoin="round"/>
<path d="M7 11.375H9.29688C9.732 11.375 10.1493 11.2021 10.457 10.8945C10.7646 10.5868 10.9375 10.1695 10.9375 9.73438V3.9375M6.97266 2.625H4.67578C4.24066 2.625 3.82336 2.79785 3.51568 3.10553C3.20801 3.4132 3.03516 3.8305 3.03516 4.26562V10.0625" stroke="white" stroke-width="1.5" stroke-linecap="round" stroke-linejoin="round"/>
</svg>
