<svg width="19" height="19" viewBox="0 0 19 19" fill="none" xmlns="http://www.w3.org/2000/svg">
<path d="M6.6875 15.3516C6.99816 15.3516 7.25 15.0997 7.25 14.7891C7.25 14.4784 6.99816 14.2266 6.6875 14.2266C6.37684 14.2266 6.125 14.4784 6.125 14.7891C6.125 15.0997 6.37684 15.3516 6.6875 15.3516Z" stroke="#C39C45" stroke-width="1.5" stroke-linecap="round" stroke-linejoin="round"/>
<path d="M14.5625 15.3516C14.8732 15.3516 15.125 15.0997 15.125 14.7891C15.125 14.4784 14.8732 14.2266 14.5625 14.2266C14.2518 14.2266 14 14.4784 14 14.7891C14 15.0997 14.2518 15.3516 14.5625 15.3516Z" stroke="#C39C45" stroke-width="1.5" stroke-linecap="round" stroke-linejoin="round"/>
<path d="M2.1875 2.97656H4.4375L6.125 12.5391H15.125" stroke="#C39C45" stroke-width="1.5" stroke-linecap="round" stroke-linejoin="round"/>
<path d="M6.125 10.2891H14.8944C14.9594 10.2891 15.0225 10.2666 15.0728 10.2254C15.1231 10.1842 15.1576 10.1268 15.1704 10.063L16.1829 5.00051C16.191 4.95969 16.19 4.91756 16.1799 4.87717C16.1699 4.83678 16.1509 4.79913 16.1245 4.76694C16.0981 4.73475 16.0649 4.70883 16.0273 4.69104C15.9896 4.67325 15.9485 4.66403 15.9069 4.66406H5" stroke="#C39C45" stroke-width="1.5" stroke-linecap="round" stroke-linejoin="round"/>
</svg>
