<svg width="40" height="28" viewBox="0 0 40 28" fill="none" xmlns="http://www.w3.org/2000/svg">
<rect y="0.449219" width="40" height="27.4286" rx="2" fill="white"/>
<path d="M25.3446 6.16357C29.6513 6.16375 33.1422 9.69552 33.1425 14.0522C33.1425 18.4092 29.6515 21.9417 25.3446 21.9419C23.4132 21.9419 21.6472 21.2296 20.285 20.0532C18.9231 21.2292 17.1583 21.9418 15.2274 21.9419C10.9204 21.9419 7.42859 18.4093 7.42859 14.0522C7.42883 9.69541 10.9205 6.16357 15.2274 6.16357C17.1581 6.16363 18.9231 6.87556 20.285 8.05127C21.6471 6.8751 23.4134 6.16357 25.3446 6.16357Z" fill="#ED0006"/>
<path d="M25.3444 6.16357C29.6512 6.1636 33.1429 9.69543 33.1432 14.0522C33.1432 18.4093 29.6514 21.9419 25.3444 21.9419C23.4134 21.9419 21.6478 21.2301 20.2858 20.0542C21.9617 18.6072 23.026 16.4559 23.026 14.0522C23.0259 11.6486 21.9619 9.49721 20.2858 8.05029C21.6477 6.87458 23.4136 6.16357 25.3444 6.16357Z" fill="#F9A000"/>
<path d="M20.285 8.05127C21.9612 9.49827 23.0262 11.6494 23.0262 14.0532C23.0261 16.4566 21.9608 18.6063 20.285 20.0532C18.6098 18.6063 17.5459 16.4562 17.5458 14.0532C17.5458 11.6498 18.6093 9.49827 20.285 8.05127Z" fill="#FF5E00"/>
</svg>
