<svg width="18" height="18" viewBox="0 0 18 18" fill="none" xmlns="http://www.w3.org/2000/svg">
<path d="M7.5 3C6.30653 3 5.16193 3.47411 4.31802 4.31802C3.47411 5.16193 3 6.30653 3 7.5C3 8.69347 3.47411 9.83807 4.31802 10.682C5.16193 11.5259 6.30653 12 7.5 12C8.69347 12 9.83807 11.5259 10.682 10.682C11.5259 9.83807 12 8.69347 12 7.5C12 6.30653 11.5259 5.16193 10.682 4.31802C9.83807 3.47411 8.69347 3 7.5 3ZM1.5 7.5C1.50014 6.54515 1.72816 5.60411 2.16513 4.75511C2.6021 3.9061 3.23538 3.17365 4.01235 2.61861C4.78933 2.06358 5.68755 1.702 6.63237 1.56392C7.57719 1.42585 8.54132 1.51526 9.44463 1.82473C10.3479 2.13421 11.1644 2.6548 11.826 3.34325C12.4877 4.0317 12.9754 4.86813 13.2488 5.78301C13.5222 6.69789 13.5733 7.66481 13.3978 8.6034C13.2224 9.542 12.8254 10.4252 12.24 11.1795L16.2803 15.2197C16.4169 15.3612 16.4925 15.5507 16.4908 15.7473C16.489 15.9439 16.4102 16.1321 16.2711 16.2711C16.1321 16.4102 15.9439 16.489 15.7473 16.4908C15.5507 16.4925 15.3612 16.4169 15.2198 16.2802L11.1795 12.24C10.2926 12.9286 9.23027 13.3545 8.11332 13.4692C6.99638 13.584 5.86964 13.3831 4.86124 12.8893C3.85283 12.3954 3.00322 11.6286 2.40902 10.6759C1.81482 9.72316 1.49988 8.62282 1.5 7.5Z" fill="white"/>
</svg>
