<svg width="40" height="28" viewBox="0 0 40 28" fill="none" xmlns="http://www.w3.org/2000/svg">
<rect y="0.449219" width="40" height="27.4286" rx="2" fill="white"/>
<path d="M17.4122 20.7567L17.6573 19.1996L17.1113 19.1869H14.5037L16.3158 7.69642C16.3214 7.66173 16.3397 7.62939 16.3664 7.60642C16.3931 7.58346 16.4274 7.5708 16.463 7.5708H20.8599C22.3196 7.5708 23.3268 7.87455 23.8528 8.47407C24.0993 8.75533 24.2564 9.04923 24.3324 9.37267C24.412 9.71205 24.4135 10.1175 24.3356 10.612L24.3299 10.6481V10.965L24.5766 11.1047C24.7843 11.2148 24.9492 11.3409 25.0757 11.4853C25.2868 11.7258 25.4232 12.0314 25.4808 12.3938C25.5403 12.7664 25.5206 13.2098 25.4232 13.7119C25.3106 14.2894 25.1288 14.7923 24.8832 15.2039C24.6572 15.5831 24.3693 15.8976 24.0277 16.1414C23.7014 16.373 23.3138 16.5488 22.8755 16.6613C22.4507 16.7718 21.9666 16.8277 21.4355 16.8277H21.0933C20.8487 16.8277 20.6109 16.9158 20.4244 17.0738C20.2374 17.2351 20.1135 17.4553 20.0756 17.6963L20.0498 17.8365L19.6167 20.5809L19.597 20.6817C19.5919 20.7136 19.583 20.7296 19.5699 20.7404C19.5581 20.7501 19.5413 20.7567 19.5248 20.7567H17.4122Z" fill="#253B80"/>
<path d="M24.809 10.6851C24.7959 10.769 24.7809 10.8547 24.764 10.9429C24.1841 13.9199 22.2004 14.9483 19.6668 14.9483H18.3768C18.067 14.9483 17.8059 15.1733 17.7576 15.4789L17.0971 19.6677L16.9101 20.855C16.8786 21.0557 17.0334 21.2366 17.2358 21.2366H19.5239C19.7948 21.2366 20.0249 21.0397 20.0675 20.7726L20.0901 20.6563L20.5209 17.9225L20.5486 17.7726C20.5907 17.5045 20.8213 17.3076 21.0922 17.3076H21.4344C23.6511 17.3076 25.3865 16.4076 25.8937 13.8032C26.1055 12.7152 25.9958 11.8068 25.4352 11.1679C25.2656 10.9752 25.0551 10.8154 24.809 10.6851Z" fill="#179BD7"/>
<path d="M24.2013 10.4425C24.1128 10.4167 24.0213 10.3933 23.9275 10.3722C23.8333 10.3516 23.7367 10.3333 23.6374 10.3173C23.2896 10.2611 22.9085 10.2344 22.5002 10.2344H19.054C18.9691 10.2344 18.8886 10.2536 18.8164 10.2883C18.6574 10.3647 18.5394 10.5152 18.5107 10.6994L17.7775 15.3428L17.7565 15.4783C17.8048 15.1726 18.0659 14.9476 18.3757 14.9476H19.6656C22.1993 14.9476 24.1831 13.9187 24.7629 10.9422C24.7802 10.8541 24.7948 10.7683 24.8078 10.6844C24.6612 10.6066 24.5022 10.54 24.3311 10.4833C24.289 10.4692 24.2454 10.4556 24.2013 10.4425Z" fill="#222D65"/>
<path d="M18.5127 10.6997C18.5413 10.5155 18.6595 10.365 18.8183 10.2891C18.8911 10.2544 18.9712 10.2352 19.056 10.2352H22.5023C22.9106 10.2352 23.2917 10.2619 23.6394 10.3182C23.7388 10.3341 23.8355 10.3524 23.9296 10.373C24.0234 10.3941 24.1148 10.4175 24.2034 10.4433C24.2474 10.4564 24.291 10.47 24.3336 10.4836C24.5047 10.5403 24.6637 10.6074 24.8103 10.6847C24.9829 9.58456 24.809 8.8355 24.2142 8.15722C23.5584 7.41051 22.3748 7.09082 20.8603 7.09082H16.4633C16.1539 7.09082 15.8901 7.31581 15.8422 7.62191L14.0109 19.2305C13.9748 19.4601 14.1519 19.6674 14.3835 19.6674H17.0981L17.7796 15.3431L18.5127 10.6997Z" fill="#253B80"/>
</svg>
