<svg width="25" height="24" viewBox="0 0 25 24" fill="none" xmlns="http://www.w3.org/2000/svg">
<path fill-rule="evenodd" clip-rule="evenodd" d="M12.9572 1.25C11.6974 1.25 10.4892 1.75044 9.59845 2.64124C8.70765 3.53204 8.20721 4.74022 8.20721 6C8.20721 7.25978 8.70765 8.46796 9.59845 9.35876C10.4892 10.2496 11.6974 10.75 12.9572 10.75C14.217 10.75 15.4252 10.2496 16.316 9.35876C17.2068 8.46796 17.7072 7.25978 17.7072 6C17.7072 4.74022 17.2068 3.53204 16.316 2.64124C15.4252 1.75044 14.217 1.25 12.9572 1.25ZM9.70721 6C9.70721 5.13805 10.0496 4.3114 10.6591 3.7019C11.2686 3.09241 12.0953 2.75 12.9572 2.75C13.8192 2.75 14.6458 3.09241 15.2553 3.7019C15.8648 4.3114 16.2072 5.13805 16.2072 6C16.2072 6.86195 15.8648 7.6886 15.2553 8.2981C14.6458 8.90759 13.8192 9.25 12.9572 9.25C12.0953 9.25 11.2686 8.90759 10.6591 8.2981C10.0496 7.6886 9.70721 6.86195 9.70721 6ZM12.9572 12.25C10.6442 12.25 8.51221 12.776 6.93321 13.664C5.37721 14.54 4.20721 15.866 4.20721 17.5V17.602C4.20621 18.764 4.20521 20.222 5.48421 21.264C6.11321 21.776 6.99421 22.141 8.18421 22.381C9.37621 22.623 10.9312 22.75 12.9572 22.75C14.9832 22.75 16.5372 22.623 17.7312 22.381C18.9212 22.141 19.8012 21.776 20.4312 21.264C21.7102 20.222 21.7082 18.764 21.7072 17.602V17.5C21.7072 15.866 20.5372 14.54 18.9822 13.664C17.4022 12.776 15.2712 12.25 12.9572 12.25ZM5.70721 17.5C5.70721 16.649 6.32921 15.725 7.66821 14.972C8.98421 14.232 10.8522 13.75 12.9582 13.75C15.0622 13.75 16.9302 14.232 18.2462 14.972C19.5862 15.725 20.2072 16.649 20.2072 17.5C20.2072 18.808 20.1672 19.544 19.4832 20.1C19.1132 20.402 18.4932 20.697 17.4332 20.911C16.3762 21.125 14.9312 21.25 12.9572 21.25C10.9832 21.25 9.53721 21.125 8.48121 20.911C7.42121 20.697 6.80121 20.402 6.43121 20.101C5.74721 19.544 5.70721 18.808 5.70721 17.5Z" fill="#0E0E0E"/>
</svg>
